<svg style="left: 0px; top: 0px; width: 100%; height: 100%; display: block; min-width: 971px; min-height: 861px;" content="&lt;mxfile&gt;&lt;diagram id=&quot;d&quot; name=&quot;P&quot;&gt;7Zxbc9o6EMc/DTPtAx1bxqR9BELvKSmkp+c8ZYStgIuxGFnOpZ/+rHwVlqA5GcyRSWYyBC/Csv+/XWlXctJxRuv7DwxvlhfUJ2HHGXesQQdZ4scZMUr5lqn4YH0/ImEI7wO/45x3kLCj9NP3j2tvZ+03mJGIP+0UPOAhyb5zi8OEZNZRGHirjzSJ4SNrxinDC/FuwLxlwInHEwaH/Q5y7nHHGb76ycAKn19ivky7GsLrlGA/t73OOoj5Q5h3wMk9XPBwydeg1rkNb2PO6IqMaEgZWCIaQcvhTRCGNRMOg0UEhx7cMgH78JYwHng4HOQfrAPfF90M78S1zjbYE33eAR2wMZpEPhH3DmoMVflyRcU5yb1kUrWsFP1A6Jpw9gDH+VeQm2O4C3xQJLW5Vm5bkmCxzLvr5TYcZ8eL8lT7III95/goxL/wLbYVxJ/BKuASdht4Ms1PUcxxJEyWrXDTaSpBrOQVR3ge0zDhBNxmFvwmhbU66jfIoEDwkB2+VYnYPQ0R91hE0JOIoBYTQY7hSJwnIfnWYiQ922AkK3yzwtdemMRioK+jGYC+S6H/F9EMfo/khoeXyra2pUKWqlVPN8bb6AliFVcymf+C6RbeV05T3dGWnwm/E66W9Z95W9W06Dvz0sNTmqsTzFDM50w7i8RLvBFvvYcwgLtizo7ZWgqaeXb/X+elAXurRarKJOFwmiJy4jxs3AbDpkRa+AJy1bjR+cIR42auTjAlEXUWaTuR+nRvJBF1fimJOCdHxHlrPhFON4GnQLlKrY44B7kFVWJp3rdzsaBsCmgUK9ROu66x39WYavKFsgSVmTrHYOotdyYLW/Vsw4lCLcvtafKEd7qcqgyY08wT/AAiIZhDpusreLIwu2b4Tl5VOK++8VqyT2mS0ksvDFnfE5Kq/x5HXfikMaq1CaaHVKxlOMhY+4egClIGmzhXyyCoMEkxX039ZsLcKTO/w9Pob8NwbRVGCUiG8aTJpT0xluJQ874CB2oKh4teeOh4MBsrMKZkA5ORKFjtQVM8aqmX21Nx2LqxqqxpTxXHfB+O5oqTFx56HmhfeKDGwqPU/4VHjce++ECNxcfZCw99kUo080ex3DmOFqKgl/JlDwrSZJ2mxnKFalldV92AK5YXoBIS9eOGsACUE4Vnarqsjv+06nAT3BNfWrpuyktqtafratYT+honOcoe2/pWg+oCg4ABFPa/Rc1j/RWQrfrm82zyLVMqJicIqG89EpDjHgFQSD0cahhVped12kQuNLOhD8rPC8IW5IoRspNSW1fp3rnbzDQb17arYXaURboNo780yC7BDCM3jG7pIl3JazI9H0+h6fAfeHmVxIRdB74aWIfdnUPHg3Omqaq0cI6y2pYFlJow7AmoVyyLqN2DXVvDyOw4WhFNov3f84h+17ZPYZ5ya0t5pmUSGljPLJOoEzIwldBAeuapRBlGRo6BIpfQMHs2uUSdjoHJhGb14VkmE2dGB9KKkM2fdli/5G3knIIyP4hwGmkI+rRyfMLwuikl65t2bzVOr920O8i2hKmbdoxg/5qGRc8SxMnXwWWneHK7gocjHD7wwIszcnixYGSRkovljdnZ+Ot4dAUN3rx5A68fppMfl/kQWrZ5P51cCGmkDV+rttHb5BCLmnw6ol9bxtQ9HKFztrNjhG0OneugX+mgrykMnVK8bmgQ8W5I6SrZ7KH+8+N4Oobf+ZQJXfwtNf4RE1FJSLPu6eC2z0zinT7030XdnY9nQkLkJ56ahhJ/QWb5Yf5oUkTHklFITBlf0gWFcSE3SIiyM4rTbKmtARDThBUjofRHChxDipy3lC//kXgYCcFtb7d7b/5x/kpr1Aat0U6tkfFaO5XW6iOVBmrt7NTaMVrrIviE3LqtqPoukymab495W7Lnt2G65KmH61btlAU5wzTXuXp+H+ZqDk4BeldbeAaoWYabrGRxhcYqKS4QlNy11/bp22w8vTJF44q3rLF07cbKLCIqdVhkkMMircMaHvriAguH1Yy2pjmsTmPp2o2VOQ+qcmhQF/qk1aDDy+3jeFnWjDGIxweM0bvqdCTya5anEdoa+NRRZW4+JCkcThrS7khqAaQ0knasw24vtDYK6cAxUt2Q2eqj1quvc/4WqF+uW4P++/6aqFiRNGPWrq22y5rXbsJ04XkrhectFl66zj1l1Y38l2+GjTeKu7St1tIg0BQK7UbQmuphxwOhOOG0Gz9EnpH670x4qrsxW3pUSK9x/BZIr8t2qrv5v6VP7dJ/iMvb1f+Z3L8=&lt;/diagram&gt;&lt;/mxfile&gt;"><g><g></g><g><g style="visibility: visible;" transform="translate(0.5,0.5)"><rect x="250" y="0" width="500" height="40" fill="none" stroke="white" pointer-events="stroke" visibility="hidden" stroke-width="9"></rect><rect x="250" y="0" width="500" height="40" fill="none" stroke="none" pointer-events="all"></rect></g><g style=""><g fill="#774400" font-family="Arial,Helvetica" text-anchor="middle" font-size="11px"><text x="500" y="18">ClickHouse Storage Architecture</text><text x="500" y="31">(Write Path + Read Path)</text></g></g><g style="visibility: visible;" transform="translate(0.5,0.5)"><rect x="50" y="80" width="140" height="50" rx="8" ry="8" fill="#c3d9ff" stroke="#6482b9" pointer-events="all"></rect></g><g style=""><g fill="#774400" font-family="Arial,Helvetica" text-anchor="middle" font-size="11px"><text x="120" y="103">Java Service</text><text x="120" y="116">Instance 1</text></g></g><g style="visibility: visible;" transform="translate(0.5,0.5)"><rect x="230" y="80" width="140" height="50" rx="8" ry="8" fill="#c3d9ff" stroke="#6482b9" pointer-events="all"></rect></g><g style=""><g fill="#774400" font-family="Arial,Helvetica" text-anchor="middle" font-size="11px"><text x="300" y="103">Java Service</text><text x="300" y="116">Instance 2</text></g></g><g style="visibility: visible;" transform="translate(0.5,0.5)"><rect x="410" y="80" width="140" height="50" rx="8" ry="8" fill="#c3d9ff" stroke="#6482b9" pointer-events="all"></rect></g><g style=""><g fill="#774400" font-family="Arial,Helvetica" text-anchor="middle" font-size="11px"><text x="480" y="103">Java Service</text><text x="480" y="116">Instance N</text></g></g><g style="visibility: visible;" transform="translate(0.5,0.5)"><rect x="100" y="200" width="400" height="120" fill="#c3d9ff" stroke="#6482b9" pointer-events="all"></rect></g><g style=""><g fill="#774400" font-family="Arial,Helvetica" text-anchor="middle" font-size="11px"><text x="300" y="264.5">Apache Kafka Cluster</text></g></g><g style="visibility: visible;" transform="translate(0.5,0.5)"><rect x="120" y="225" width="100" height="50" fill="#c3d9ff" stroke="#6482b9" pointer-events="all"></rect></g><g style=""><g fill="#774400" font-family="Arial,Helvetica" text-anchor="middle" font-size="11px"><text x="170" y="254.5">Broker 1</text></g></g><g style="visibility: visible;" transform="translate(0.5,0.5)"><rect x="250" y="225" width="100" height="50" fill="#c3d9ff" stroke="#6482b9" pointer-events="all"></rect></g><g style=""><g fill="#774400" font-family="Arial,Helvetica" text-anchor="middle" font-size="11px"><text x="300" y="254.5">Broker 2</text></g></g><g style="visibility: visible;" transform="translate(0.5,0.5)"><rect x="380" y="225" width="100" height="50" fill="#c3d9ff" stroke="#6482b9" pointer-events="all"></rect></g><g style=""><g fill="#774400" font-family="Arial,Helvetica" text-anchor="middle" font-size="11px"><text x="430" y="254.5">Broker 3</text></g></g><g style="visibility: visible;" transform="translate(0.5,0.5)"><rect x="190" y="280" width="220" height="30" fill="none" stroke="white" pointer-events="stroke" visibility="hidden" stroke-width="9"></rect><rect x="190" y="280" width="220" height="30" fill="none" stroke="none" pointer-events="all"></rect></g><g style=""><g fill="#774400" font-family="Arial,Helvetica" text-anchor="middle" font-size="11px"><text x="300" y="293">Topic: events</text><text x="300" y="306">12 partitions</text></g></g><g style="visibility: visible;" transform="translate(0.5,0.5)"><rect x="30" y="400" width="940" height="380" fill="#c3d9ff" stroke="#6482b9" pointer-events="all"></rect></g><g style=""><g fill="#774400" font-family="Arial,Helvetica" text-anchor="middle" font-size="11px"><text x="500" y="594.5">ClickHouse Cluster</text></g></g><g style="visibility: visible;" transform="translate(0.5,0.5)"><rect x="350" y="420" width="280" height="60" fill="#c3d9ff" stroke="#6482b9" pointer-events="all"></rect></g><g style=""><g fill="#774400" font-family="Arial,Helvetica" text-anchor="middle" font-size="11px"><text x="490" y="441.5">events_raw</text><text x="490" y="454.5">(Distributed)</text><text x="490" y="467.5">Router / Query Fan-out</text></g></g><g style="visibility: visible;" transform="translate(0.5,0.5)"><rect x="60" y="510" width="420" height="250" fill="#c3d9ff" stroke="#6482b9" pointer-events="all"></rect></g><g style=""><g fill="#774400" font-family="Arial,Helvetica" text-anchor="middle" font-size="11px"><text x="270" y="639.5">Shard 1</text></g></g><g style="visibility: visible;" transform="translate(0.5,0.5)"><rect x="520" y="510" width="420" height="250" fill="#c3d9ff" stroke="#6482b9" pointer-events="all"></rect></g><g style=""><g fill="#774400" font-family="Arial,Helvetica" text-anchor="middle" font-size="11px"><text x="730" y="639.5">Shard 2</text></g></g><g style="visibility: visible;" transform="translate(0.5,0.5)"><rect x="80" y="540" width="180" height="200" fill="#c3d9ff" stroke="#6482b9" pointer-events="all"></rect></g><g style=""><g fill="#774400" font-family="Arial,Helvetica" text-anchor="middle" font-size="11px"><text x="170" y="644.5">Replica 1A</text></g></g><g style="visibility: visible;" transform="translate(0.5,0.5)"><rect x="280" y="540" width="180" height="200" fill="#c3d9ff" stroke="#6482b9" pointer-events="all"></rect></g><g style=""><g fill="#774400" font-family="Arial,Helvetica" text-anchor="middle" font-size="11px"><text x="370" y="644.5">Replica 1B</text></g></g><g style="visibility: visible;" transform="translate(0.5,0.5)"><rect x="540" y="540" width="180" height="200" fill="#c3d9ff" stroke="#6482b9" pointer-events="all"></rect></g><g style=""><g fill="#774400" font-family="Arial,Helvetica" text-anchor="middle" font-size="11px"><text x="630" y="644.5">Replica 2A</text></g></g><g style="visibility: visible;" transform="translate(0.5,0.5)"><rect x="740" y="540" width="180" height="200" fill="#c3d9ff" stroke="#6482b9" pointer-events="all"></rect></g><g style=""><g fill="#774400" font-family="Arial,Helvetica" text-anchor="middle" font-size="11px"><text x="830" y="644.5">Replica 2B</text></g></g><g style="visibility: visible;" transform="translate(0.5,0.5)"><rect x="90" y="555" width="160" height="40" fill="#c3d9ff" stroke="#6482b9" pointer-events="all"></rect></g><g style=""><g fill="#774400" font-family="Arial,Helvetica" text-anchor="middle" font-size="11px"><text x="170" y="573">Kafka Engine</text><text x="170" y="586">(consumer partitions 0-5)</text></g></g><g style="visibility: visible;" transform="translate(0.5,0.5)"><rect x="90" y="605" width="160" height="35" fill="#c3d9ff" stroke="#6482b9" pointer-events="all"></rect></g><g style=""><g fill="#774400" font-family="Arial,Helvetica" text-anchor="middle" font-size="11px"><text x="170" y="620.5">Materialized View</text><text x="170" y="633.5">(JSON parse)</text></g></g><g style="visibility: visible;" transform="translate(0.5,0.5)"><rect x="95" y="650" width="150" height="50" fill="#c3d9ff" stroke="#6482b9" pointer-events="all"></rect></g><g style=""><g fill="#774400" font-family="Arial,Helvetica" text-anchor="middle" font-size="11px"><text x="170" y="673">events_raw_local</text><text x="170" y="686">ReplicatedMergeTree</text></g></g><g style="visibility: visible;" transform="translate(0.5,0.5)"><rect x="95" y="710" width="150" height="30" rx="6" ry="6" fill="#c3d9ff" stroke="#6482b9" pointer-events="all"></rect></g><g style=""><g fill="#774400" font-family="Arial,Helvetica" text-anchor="middle" font-size="11px"><text x="170" y="723">Projection:</text><text x="170" y="736">ORDER BY (user_id)</text></g></g><g style="visibility: visible;" transform="translate(0.5,0.5)"><rect x="295" y="650" width="150" height="50" fill="#c3d9ff" stroke="#6482b9" pointer-events="all"></rect></g><g style=""><g fill="#774400" font-family="Arial,Helvetica" text-anchor="middle" font-size="11px"><text x="370" y="673">events_raw_local</text><text x="370" y="686">(replica)</text></g></g><g style="visibility: visible;" transform="translate(0.5,0.5)"><rect x="550" y="555" width="160" height="40" fill="#c3d9ff" stroke="#6482b9" pointer-events="all"></rect></g><g style=""><g fill="#774400" font-family="Arial,Helvetica" text-anchor="middle" font-size="11px"><text x="630" y="573">Kafka Engine</text><text x="630" y="586">(consumer partitions 6-11)</text></g></g><g style="visibility: visible;" transform="translate(0.5,0.5)"><rect x="550" y="605" width="160" height="35" fill="#c3d9ff" stroke="#6482b9" pointer-events="all"></rect></g><g style=""><g fill="#774400" font-family="Arial,Helvetica" text-anchor="middle" font-size="11px"><text x="630" y="620.5">Materialized View</text><text x="630" y="633.5">(JSON parse)</text></g></g><g style="visibility: visible;" transform="translate(0.5,0.5)"><rect x="555" y="650" width="150" height="50" fill="#c3d9ff" stroke="#6482b9" pointer-events="all"></rect></g><g style=""><g fill="#774400" font-family="Arial,Helvetica" text-anchor="middle" font-size="11px"><text x="630" y="673">events_raw_local</text><text x="630" y="686">ReplicatedMergeTree</text></g></g><g style="visibility: visible;" transform="translate(0.5,0.5)"><rect x="555" y="710" width="150" height="30" rx="6" ry="6" fill="#c3d9ff" stroke="#6482b9" pointer-events="all"></rect></g><g style=""><g fill="#774400" font-family="Arial,Helvetica" text-anchor="middle" font-size="11px"><text x="630" y="723">Projection:</text><text x="630" y="736">ORDER BY (user_id)</text></g></g><g style="visibility: visible;" transform="translate(0.5,0.5)"><rect x="755" y="650" width="150" height="50" fill="#c3d9ff" stroke="#6482b9" pointer-events="all"></rect></g><g style=""><g fill="#774400" font-family="Arial,Helvetica" text-anchor="middle" font-size="11px"><text x="830" y="673">events_raw_local</text><text x="830" y="686">(replica)</text></g></g><g style="visibility: visible;" transform="translate(0.5,0.5)"><rect x="350" y="810" width="280" height="50" fill="#c3d9ff" stroke="#6482b9" pointer-events="all"></rect></g><g style=""><g fill="#774400" font-family="Arial,Helvetica" text-anchor="middle" font-size="11px"><text x="490" y="833">ClickHouse Keeper</text><text x="490" y="846">(coordination, replication)</text></g></g><g style="visibility: visible;" transform="translate(0.5,0.5)"><rect x="640" y="80" width="280" height="70" rx="10" ry="10" fill="#c3d9ff" stroke="#6482b9" pointer-events="all"></rect></g><g style=""><g fill="#774400" font-family="Arial,Helvetica" text-anchor="middle" font-size="11px"><text x="780" y="100">OLAP Read</text><text x="780" y="113">(analytics, aggregations)</text><text x="780" y="126">SELECT ... GROUP BY</text><text x="780" y="139">FROM events_raw (Distributed)</text></g></g><g style="visibility: visible;" transform="translate(0.5,0.5)"><rect x="640" y="170" width="280" height="70" rx="10" ry="10" fill="#c3d9ff" stroke="#6482b9" pointer-events="all"></rect></g><g style=""><g fill="#774400" font-family="Arial,Helvetica" text-anchor="middle" font-size="11px"><text x="780" y="190">OLTP Read</text><text x="780" y="203">(moderation, point-lookup)</text><text x="780" y="216">SELECT ... WHERE user_id=X</text><text x="780" y="229">Uses Projection</text></g></g><g style="visibility: visible;" transform="translate(0.5,0.5)"><path d="M 128.62 130 L 159.3 218.98" fill="none" stroke="white" stroke-miterlimit="10" pointer-events="stroke" visibility="hidden" stroke-width="9"></path><path d="M 128.62 130 L 159.3 218.98" fill="none" stroke="#6482b9" stroke-miterlimit="10" pointer-events="stroke"></path><path d="M 161.01 223.94 L 155.42 218.47 L 159.3 218.98 L 162.04 216.18 Z" fill="#6482b9" stroke="#6482b9" stroke-miterlimit="10" pointer-events="all"></path></g><g style=""><g fill="#446299" font-family="Arial,Helvetica" text-anchor="middle" font-size="11px"><text x="144.92" y="181.77">produce</text></g></g><g style="visibility: visible;" transform="translate(0.5,0.5)"><path d="M 300 130 L 300 218.63" fill="none" stroke="white" stroke-miterlimit="10" pointer-events="stroke" visibility="hidden" stroke-width="9"></path><path d="M 300 130 L 300 218.63" fill="none" stroke="#6482b9" stroke-miterlimit="10" pointer-events="stroke"></path><path d="M 300 223.88 L 296.5 216.88 L 300 218.63 L 303.5 216.88 Z" fill="#6482b9" stroke="#6482b9" stroke-miterlimit="10" pointer-events="all"></path></g><g style=""><g fill="#446299" font-family="Arial,Helvetica" text-anchor="middle" font-size="11px"><text x="300" y="182.5">produce</text></g></g><g style="visibility: visible;" transform="translate(0.5,0.5)"><path d="M 471.38 130 L 440.7 218.98" fill="none" stroke="white" stroke-miterlimit="10" pointer-events="stroke" visibility="hidden" stroke-width="9"></path><path d="M 471.38 130 L 440.7 218.98" fill="none" stroke="#6482b9" stroke-miterlimit="10" pointer-events="stroke"></path><path d="M 438.99 223.94 L 437.96 216.18 L 440.7 218.98 L 444.58 218.47 Z" fill="#6482b9" stroke="#6482b9" stroke-miterlimit="10" pointer-events="all"></path></g><g style=""><g fill="#446299" font-family="Arial,Helvetica" text-anchor="middle" font-size="11px"><text x="455.08" y="181.77">produce</text></g></g><g style="visibility: visible;" transform="translate(0.5,0.5)"><path d="M 170 275 L 170 568.63" fill="none" stroke="white" stroke-miterlimit="10" pointer-events="stroke" visibility="hidden" stroke-width="9"></path><path d="M 170 275 L 170 568.63" fill="none" stroke="#6482b9" stroke-miterlimit="10" pointer-events="stroke"></path><path d="M 170 573.88 L 166.5 566.88 L 170 568.63 L 173.5 566.88 Z" fill="#6482b9" stroke="#6482b9" stroke-miterlimit="10" pointer-events="all"></path></g><g style=""><g fill="#446299" font-family="Arial,Helvetica" text-anchor="middle" font-size="11px"><text x="170" y="429.5">partitions 0-5</text></g></g><g style="visibility: visible;" transform="translate(0.5,0.5)"><path d="M 445.38 275 L 626.66 569.58" fill="none" stroke="white" stroke-miterlimit="10" pointer-events="stroke" visibility="hidden" stroke-width="9"></path><path d="M 445.38 275 L 626.66 569.58" fill="none" stroke="#6482b9" stroke-miterlimit="10" pointer-events="stroke"></path><path d="M 629.41 574.05 L 622.76 569.92 L 626.66 569.58 L 628.73 566.25 Z" fill="#6482b9" stroke="#6482b9" stroke-miterlimit="10" pointer-events="all"></path></g><g style=""><g fill="#446299" font-family="Arial,Helvetica" text-anchor="middle" font-size="11px"><text x="537.63" y="429.39">partitions 6-11</text></g></g><g style="visibility: visible;" transform="translate(0.5,0.5)"><path d="M 170 575 L 170 616.13" fill="none" stroke="white" stroke-miterlimit="10" pointer-events="stroke" visibility="hidden" stroke-width="9"></path><path d="M 170 575 L 170 616.13" fill="none" stroke="#6482b9" stroke-miterlimit="10" pointer-events="stroke"></path><path d="M 170 621.38 L 166.5 614.38 L 170 616.13 L 173.5 614.38 Z" fill="#6482b9" stroke="#6482b9" stroke-miterlimit="10" pointer-events="all"></path></g><g style="visibility: visible;" transform="translate(0.5,0.5)"><path d="M 170 622.5 L 170 643.63" fill="none" stroke="white" stroke-miterlimit="10" pointer-events="stroke" visibility="hidden" stroke-width="9"></path><path d="M 170 622.5 L 170 643.63" fill="none" stroke="#6482b9" stroke-miterlimit="10" pointer-events="stroke"></path><path d="M 170 648.88 L 166.5 641.88 L 170 643.63 L 173.5 641.88 Z" fill="#6482b9" stroke="#6482b9" stroke-miterlimit="10" pointer-events="all"></path></g><g style=""><g fill="#446299" font-family="Arial,Helvetica" text-anchor="middle" font-size="11px"><text x="170" y="641">INSERT</text></g></g><g style="visibility: visible;" transform="translate(0.5,0.5)"><path d="M 630 575 L 630 616.13" fill="none" stroke="white" stroke-miterlimit="10" pointer-events="stroke" visibility="hidden" stroke-width="9"></path><path d="M 630 575 L 630 616.13" fill="none" stroke="#6482b9" stroke-miterlimit="10" pointer-events="stroke"></path><path d="M 630 621.38 L 626.5 614.38 L 630 616.13 L 633.5 614.38 Z" fill="#6482b9" stroke="#6482b9" stroke-miterlimit="10" pointer-events="all"></path></g><g style="visibility: visible;" transform="translate(0.5,0.5)"><path d="M 630 622.5 L 630 643.63" fill="none" stroke="white" stroke-miterlimit="10" pointer-events="stroke" visibility="hidden" stroke-width="9"></path><path d="M 630 622.5 L 630 643.63" fill="none" stroke="#6482b9" stroke-miterlimit="10" pointer-events="stroke"></path><path d="M 630 648.88 L 626.5 641.88 L 630 643.63 L 633.5 641.88 Z" fill="#6482b9" stroke="#6482b9" stroke-miterlimit="10" pointer-events="all"></path></g><g style=""><g fill="#446299" font-family="Arial,Helvetica" text-anchor="middle" font-size="11px"><text x="630" y="641">INSERT</text></g></g><g style="visibility: visible;" transform="translate(0.5,0.5)"><path d="M 245 675 L 288.63 675" fill="none" stroke="white" stroke-miterlimit="10" pointer-events="stroke" visibility="hidden" stroke-width="9"></path><path d="M 245 675 L 288.63 675" fill="none" stroke="#6482b9" stroke-miterlimit="10" pointer-events="stroke"></path><path d="M 293.88 675 L 286.88 678.5 L 288.63 675 L 286.88 671.5 Z" fill="#6482b9" stroke="#6482b9" stroke-miterlimit="10" pointer-events="all"></path></g><g style=""><g fill="#446299" font-family="Arial,Helvetica" text-anchor="middle" font-size="11px"><text x="270" y="679.5">replication</text></g></g><g style="visibility: visible;" transform="translate(0.5,0.5)"><path d="M 705 675 L 748.63 675" fill="none" stroke="white" stroke-miterlimit="10" pointer-events="stroke" visibility="hidden" stroke-width="9"></path><path d="M 705 675 L 748.63 675" fill="none" stroke="#6482b9" stroke-miterlimit="10" pointer-events="stroke"></path><path d="M 753.88 675 L 746.88 678.5 L 748.63 675 L 746.88 671.5 Z" fill="#6482b9" stroke="#6482b9" stroke-miterlimit="10" pointer-events="all"></path></g><g style=""><g fill="#446299" font-family="Arial,Helvetica" text-anchor="middle" font-size="11px"><text x="730" y="679.5">replication</text></g></g><g style="visibility: visible;" transform="translate(0.5,0.5)"><path d="M 220 700 L 434.3 807.15" fill="none" stroke="white" stroke-miterlimit="10" pointer-events="stroke" visibility="hidden" stroke-width="9"></path><path d="M 220 700 L 434.3 807.15" fill="none" stroke="#6482b9" stroke-miterlimit="10" pointer-events="stroke"></path><path d="M 439 809.5 L 431.17 809.5 L 434.3 807.15 L 434.3 803.24 Z" fill="#6482b9" stroke="#6482b9" stroke-miterlimit="10" pointer-events="all"></path></g><g style=""><g fill="#446299" font-family="Arial,Helvetica" text-anchor="middle" font-size="11px"><text x="330.01" y="759.51">coordination</text></g></g><g style="visibility: visible;" transform="translate(0.5,0.5)"><path d="M 608.13 700 L 516.07 805.21" fill="none" stroke="white" stroke-miterlimit="10" pointer-events="stroke" visibility="hidden" stroke-width="9"></path><path d="M 608.13 700 L 516.07 805.21" fill="none" stroke="#6482b9" stroke-miterlimit="10" pointer-events="stroke"></path><path d="M 512.61 809.16 L 514.59 801.59 L 516.07 805.21 L 519.85 806.2 Z" fill="#6482b9" stroke="#6482b9" stroke-miterlimit="10" pointer-events="all"></path></g><g style=""><g fill="#446299" font-family="Arial,Helvetica" text-anchor="middle" font-size="11px"><text x="560.05" y="759.44">coordination</text></g></g><g style="visibility: visible;" transform="translate(0.5,0.5)"><path d="M 749.7 150 L 520.14 415.19" fill="none" stroke="white" stroke-miterlimit="10" pointer-events="stroke" visibility="hidden" stroke-width="9"></path><path d="M 749.7 150 L 520.14 415.19" fill="none" stroke="#6482b9" stroke-miterlimit="10" pointer-events="stroke"></path><path d="M 516.7 419.15 L 518.64 411.57 L 520.14 415.19 L 523.93 416.15 Z" fill="#6482b9" stroke="#6482b9" stroke-miterlimit="10" pointer-events="all"></path></g><g style=""><g fill="#446299" font-family="Arial,Helvetica" text-anchor="middle" font-size="11px"><text x="632.55" y="289.83">SELECT</text></g></g><g style="visibility: visible;" transform="translate(0.5,0.5)"><path d="M 738.57 240 L 530.37 415.89" fill="none" stroke="white" stroke-miterlimit="10" pointer-events="stroke" visibility="hidden" stroke-width="9"></path><path d="M 738.57 240 L 530.37 415.89" fill="none" stroke="#6482b9" stroke-miterlimit="10" pointer-events="stroke"></path><path d="M 526.36 419.28 L 529.45 412.09 L 530.37 415.89 L 533.97 417.43 Z" fill="#6482b9" stroke="#6482b9" stroke-miterlimit="10" pointer-events="all"></path></g><g style=""><g fill="#446299" font-family="Arial,Helvetica" text-anchor="middle" font-size="11px"><text x="632.39" y="334.2">SELECT</text></g></g><g style="visibility: visible;" transform="translate(0.5,0.5)"><path d="M 447.33 480 L 210.76 646.34" fill="none" stroke="white" stroke-miterlimit="10" pointer-events="stroke" visibility="hidden" stroke-width="9"></path><path d="M 447.33 480 L 210.76 646.34" fill="none" stroke="#6482b9" stroke-miterlimit="10" pointer-events="stroke"></path><path d="M 206.47 649.36 L 210.18 642.47 L 210.76 646.34 L 214.21 648.19 Z" fill="#6482b9" stroke="#6482b9" stroke-miterlimit="10" pointer-events="all"></path></g><g style=""><g fill="#446299" font-family="Arial,Helvetica" text-anchor="middle" font-size="11px"><text x="326.27" y="569.63">fan-out</text></g></g><g style="visibility: visible;" transform="translate(0.5,0.5)"><path d="M 508.67 480 L 611.08 644.59" fill="none" stroke="white" stroke-miterlimit="10" pointer-events="stroke" visibility="hidden" stroke-width="9"></path><path d="M 508.67 480 L 611.08 644.59" fill="none" stroke="#6482b9" stroke-miterlimit="10" pointer-events="stroke"></path><path d="M 613.85 649.05 L 607.18 644.96 L 611.08 644.59 L 613.13 641.26 Z" fill="#6482b9" stroke="#6482b9" stroke-miterlimit="10" pointer-events="all"></path></g><g style=""><g fill="#446299" font-family="Arial,Helvetica" text-anchor="middle" font-size="11px"><text x="561.5" y="569.41">fan-out</text></g></g><g style="visibility: visible;" transform="translate(0.5,0.5)"><path d="M 170 700 L 170 703.63" fill="none" stroke="white" stroke-miterlimit="10" pointer-events="stroke" visibility="hidden" stroke-width="9"></path><path d="M 170 700 L 170 703.63" fill="none" stroke="#6482b9" stroke-miterlimit="10" pointer-events="stroke"></path><path d="M 170 708.88 L 166.5 701.88 L 170 703.63 L 173.5 701.88 Z" fill="#6482b9" stroke="#6482b9" stroke-miterlimit="10" pointer-events="all"></path></g><g style=""><g fill="#446299" font-family="Arial,Helvetica" text-anchor="middle" font-size="11px"><text x="170" y="709.5">auto-sync</text></g></g><g style="visibility: visible;" transform="translate(0.5,0.5)"><path d="M 630 700 L 630 703.63" fill="none" stroke="white" stroke-miterlimit="10" pointer-events="stroke" visibility="hidden" stroke-width="9"></path><path d="M 630 700 L 630 703.63" fill="none" stroke="#6482b9" stroke-miterlimit="10" pointer-events="stroke"></path><path d="M 630 708.88 L 626.5 701.88 L 630 703.63 L 633.5 701.88 Z" fill="#6482b9" stroke="#6482b9" stroke-miterlimit="10" pointer-events="all"></path></g><g style=""><g fill="#446299" font-family="Arial,Helvetica" text-anchor="middle" font-size="11px"><text x="630" y="709.5">auto-sync</text></g></g></g><g></g><g></g></g></svg>